<?xml version="1.0"?>
<svg xmlns="http://www.w3.org/2000/svg" xmlns:xlink="http://www.w3.org/1999/xlink" xmlns:svgjs="http://svgjs.com/svgjs" version="1.1" width="512" height="512" x="0" y="0" viewBox="0 0 511 511" style="enable-background:new 0 0 512 512" xml:space="preserve" class=""><g><g xmlns="http://www.w3.org/2000/svg"><path d="m408 448h-13.394l-82.712-82.712c9.58-15.684 15.106-34.103 15.106-53.788 0-57.07-46.43-103.5-103.5-103.5s-103.5 46.43-103.5 103.5 46.43 103.5 103.5 103.5c19.685 0 38.104-5.526 53.788-15.105l82.712 82.711v13.394h-193v-80h-80v-289h273v272.5h15v-287.5h-240v-33h248.5v-15h-263.5v48h-48v314.606l84.394 84.394h218.606v-28.394l19.606-19.606h28.394v-335.5h-15zm-256 37.394-54.394-54.394h54.394zm-17-173.894c0-48.799 39.701-88.5 88.5-88.5s88.5 39.701 88.5 88.5-39.701 88.5-88.5 88.5-88.5-39.701-88.5-88.5zm168.041 66.147 13.853 13.853-13.394 13.394-13.853-13.853c4.86-4.049 9.345-8.534 13.394-13.394zm64.459 91.247-53.394-53.394 13.394-13.394 53.394 53.394z" fill="#afafaf" data-original="#000000" style="" class=""/><path d="m223.5 240c-39.425 0-71.5 32.075-71.5 71.5s32.075 71.5 71.5 71.5 71.5-32.075 71.5-71.5-32.075-71.5-71.5-71.5zm0 128c-31.154 0-56.5-25.346-56.5-56.5s25.346-56.5 56.5-56.5 56.5 25.346 56.5 56.5-25.346 56.5-56.5 56.5z" fill="#afafaf" data-original="#000000" style="" class=""/><path d="m224.601 272.025c-6.478-.291-12.642 2.002-17.33 6.479-4.621 4.413-7.271 10.608-7.271 16.996h15c0-2.344.935-4.528 2.631-6.148 1.695-1.619 3.933-2.448 6.281-2.342 4.259.196 7.883 3.82 8.079 8.079.133 2.886-1.183 5.618-3.52 7.308-7.809 5.645-12.471 15.03-12.471 25.103h15c0-5.273 2.34-10.114 6.26-12.948 6.449-4.664 10.08-12.197 9.714-20.152-.551-11.995-10.379-21.823-22.373-22.375z" fill="#afafaf" data-original="#000000" style="" class=""/><path d="m216 335.5h15v16h-15z" fill="#afafaf" data-original="#000000" style="" class=""/><path d="m183.5 168h16v15h-16z" fill="#afafaf" data-original="#000000" style="" class=""/><path d="m215.5 168h16v15h-16z" fill="#afafaf" data-original="#000000" style="" class=""/><path d="m247.5 168h16v15h-16z" fill="#afafaf" data-original="#000000" style="" class=""/><path d="m119.5 47c12.958 0 23.5-10.542 23.5-23.5s-10.542-23.5-23.5-23.5-23.5 10.542-23.5 23.5 10.542 23.5 23.5 23.5zm0-32c4.687 0 8.5 3.813 8.5 8.5s-3.813 8.5-8.5 8.5-8.5-3.813-8.5-8.5 3.813-8.5 8.5-8.5z" fill="#afafaf" data-original="#000000" style="" class=""/><path d="m415.5 64c-12.958 0-23.5 10.542-23.5 23.5s10.542 23.5 23.5 23.5 23.5-10.542 23.5-23.5-10.542-23.5-23.5-23.5zm0 32c-4.687 0-8.5-3.813-8.5-8.5s3.813-8.5 8.5-8.5 8.5 3.813 8.5 8.5-3.813 8.5-8.5 8.5z" fill="#afafaf" data-original="#000000" style="" class=""/><path d="m55 55.5h-15v16.5h-16.5v15h16.5v16.5h15v-16.5h16.5v-15h-16.5z" fill="#afafaf" data-original="#000000" style="" class=""/><path d="m487.5 152h-16.5v-16.5h-15v16.5h-16.5v15h16.5v16.5h15v-16.5h16.5z" fill="#afafaf" data-original="#000000" style="" class=""/></g></g></svg>
